<svg xmlns="http://www.w3.org/2000/svg" viewBox="0 0 5000 3472.35"><defs><style>.cls-1{fill:none;}</style></defs><g id="Layer_2" data-name="Layer 2"><g id="Layer_1-2" data-name="Layer 1"><rect class="cls-1" width="4999.99" height="3472.35"/><rect class="cls-1" x="0.01" y="118.73" width="4999.99" height="3125.09"/><path d="M4826.86,1430.13,3719.68,323a29.56,29.56,0,1,0-41.8,41.8L4764.16,1451,3677.88,2537.31a29.55,29.55,0,1,0,41.8,41.79L4826.86,1471.93A29.56,29.56,0,0,0,4826.86,1430.13Z"/><path d="M3698.78,2641a82.75,82.75,0,0,1-58.5-141.27L4688.94,1451,3640.27,402.36a82.75,82.75,0,0,1,117-117L4864.48,1392.51a82.77,82.77,0,0,1,0,117L3757.3,2616.72A82.23,82.23,0,0,1,3698.78,2641Z"/><path d="M3698.78,2617.32A59.11,59.11,0,0,1,3657,2516.41L4722.37,1451,3657,385.64a59.11,59.11,0,0,1,83.58-83.6L4847.75,1409.23a59.1,59.1,0,0,1,0,83.6L3740.58,2600A58.72,58.72,0,0,1,3698.78,2617.32Z"/><path d="M3698.78,2670.51a112.3,112.3,0,0,1-79.39-191.72L4647.14,1451,3619.37,423.26a112.31,112.31,0,0,1,158.81-158.84l1107.19,1107.2a112.3,112.3,0,0,1,0,158.83L3778.2,2637.62A111.63,111.63,0,0,1,3698.78,2670.51Zm0-2332.54a5.92,5.92,0,0,0-4.19,1.7,5.9,5.9,0,0,0,0,8.35l1103,1103-1103,1103a5.88,5.88,0,0,0,0,8.34,5.78,5.78,0,0,0,8.35,0L4810.14,1455.21a5.91,5.91,0,0,0,0-8.35L3703,339.66A5.84,5.84,0,0,0,3698.79,338Z"/><path d="M173.1,1430.13,1280.28,323a29.55,29.55,0,0,1,41.79,41.8L235.79,1451,1322.07,2537.31a29.55,29.55,0,1,1-41.79,41.79L173.1,1471.93A29.56,29.56,0,0,1,173.1,1430.13Z"/><path d="M1301.18,2641a82.21,82.21,0,0,1-58.52-24.24L135.48,1509.54a82.77,82.77,0,0,1,0-117L1242.66,285.33a82.75,82.75,0,1,1,117,117L311,1451,1359.69,2499.69A82.75,82.75,0,0,1,1301.18,2641Z"/><path d="M1301.18,2617.32a58.72,58.72,0,0,1-41.8-17.32L152.2,1492.82a59.17,59.17,0,0,1,0-83.59L1259.38,302.05A59.11,59.11,0,1,1,1343,385.64L277.59,1451,1343,2516.42a59.11,59.11,0,0,1-41.79,100.9Zm0-2273.47L194,1451.05,1301.18,2558.21,194,1451Z"/><path d="M1301.18,2670.51a111.55,111.55,0,0,1-79.42-32.9L114.59,1530.44a112.42,112.42,0,0,1,0-158.82L1221.77,264.44a112.3,112.3,0,1,1,158.82,158.82L352.82,1451,1380.59,2478.8a112.3,112.3,0,0,1-79.41,191.71ZM1297,2562.39a5.81,5.81,0,0,0,8.36,0,5.91,5.91,0,0,0,0-8.35Zm0-2222.72,8.37,8.36a5.91,5.91,0,1,0-8.37-8.36Z"/><path d="M2289.45,2211.34q-24.9,0-44.6-20.74a218.4,218.4,0,0,1-34.23-47.72l-311.17-607.81H1658.82V2145q0,31.11-27,46.68t-60.16,15.55a120,120,0,0,1-59.12-15.55q-28-15.57-28-46.68v-1394q0-24.88,17.64-41.49t44.6-18.67h379.62q126.51,0,231.3,38.38t167,128.61q62.22,90.24,62.23,247.9,0,126.55-40.45,209.52t-111,129.65q-70.56,46.68-157.66,65.35l307,582.92a94.13,94.13,0,0,1,6.22,15.56,50.25,50.25,0,0,1,2.07,13.48q0,22.86-15.56,43.56a115,115,0,0,1-39.41,33.19Q2314.34,2211.34,2289.45,2211.34Zm-630.63-821.48h267.6q128.6,0,207.45-62.23t78.82-209.52q0-147.27-78.82-208.48t-207.45-61.2h-267.6Z"/><path d="M2689.79,2207.19a120,120,0,0,1-59.12-15.55q-28-15.57-28-46.68v-1394q0-33.15,28-46.67a134.7,134.7,0,0,1,59.12-13.49q33.16,0,56,12.45t41.49,36.3q18.66,23.88,37.34,61.2L3339.09,1811v-1060q0-31.11,28-45.64a127,127,0,0,1,59.13-14.52q33.15,0,60.16,14.52t27,45.64V2145q0,31.11-27,46.68t-60.16,15.55q-33.21,0-61.2-22.82a193.67,193.67,0,0,1-46.67-56L2776.92,1084.92V2145q0,31.11-27,46.68T2689.79,2207.19Z"/><path d="M1641.61,3058.71a10.3,10.3,0,0,1-7.63-3.55,37.3,37.3,0,0,1-5.86-8.17l-53.25-104h-41.18v104.37a8.67,8.67,0,0,1-4.61,8,20.29,20.29,0,0,1-10.3,2.66,20.54,20.54,0,0,1-10.11-2.66,8.61,8.61,0,0,1-4.8-8V2808.79a9.36,9.36,0,0,1,3-7.1,12.2,12.2,0,0,1,7.63-3.2h65a114.52,114.52,0,0,1,39.58,6.57,58.19,58.19,0,0,1,28.58,22q10.65,15.45,10.65,42.42,0,21.68-6.93,35.86a54.64,54.64,0,0,1-19,22.19,78.13,78.13,0,0,1-27,11.18l52.54,99.75a16.32,16.32,0,0,1,1.07,2.67,8.64,8.64,0,0,1,.35,2.3,12.26,12.26,0,0,1-2.66,7.46,19.83,19.83,0,0,1-6.75,5.68A17.83,17.83,0,0,1,1641.61,3058.71Zm-107.92-140.58h45.8q22,0,35.5-10.65t13.49-35.86q0-25.18-13.49-35.67t-35.5-10.48h-45.8Z"/><path d="M1759.82,3060.84q-23.07,0-40.82-8.7a69.78,69.78,0,0,1-28-24.14q-10.29-15.43-10.29-36v-37.28a60.71,60.71,0,0,1,9.76-33.37,74.14,74.14,0,0,1,25.74-24.49,70.16,70.16,0,0,1,93.9,22.36q9.39,14.57,9.4,33.73,0,14.2-4.61,20.41a18.8,18.8,0,0,1-11.72,7.63,75.59,75.59,0,0,1-14.91,1.42h-78.1V2993q0,19.89,14.2,31.42t36.57,11.54q13.13,0,20.94-3.55a86.6,86.6,0,0,0,12.78-6.92c3.32-2.25,6.27-3.38,8.88-3.38a9.69,9.69,0,0,1,6.57,2.31,15.67,15.67,0,0,1,4.08,5.5,14.4,14.4,0,0,1,1.42,5.68q0,4.62-6.75,10.48t-19.34,10.29Q1776.86,3060.83,1759.82,3060.84Zm-49.7-98.34h65.68q9.59,0,12.6-2.3t3-9.06a39.2,39.2,0,0,0-5.15-19.7,40.8,40.8,0,0,0-14.38-14.73A39.18,39.18,0,0,0,1751,2911a40.86,40.86,0,0,0-20.24,5.15,41.43,41.43,0,0,0-14.91,14,35.46,35.46,0,0,0-5.68,19.52Z"/><path d="M1866.68,3058a15.86,15.86,0,0,1-10.47-3.37c-2.73-2.25-4.09-4.67-4.09-7.28V2900a8.69,8.69,0,0,1,4.09-7.45,17.93,17.93,0,0,1,10.47-2.84,15.87,15.87,0,0,1,9.58,2.84,8.82,8.82,0,0,1,3.91,7.45v14.56q5.67-10.29,17.75-18.64t29.82-8.34A55.41,55.41,0,0,1,1959,2897a70.13,70.13,0,0,1,22.71,24.67,68.74,68.74,0,0,1,8.52,34.08v91.59a8.67,8.67,0,0,1-4.61,8,20.29,20.29,0,0,1-10.3,2.66,19.62,19.62,0,0,1-9.94-2.66,8.67,8.67,0,0,1-4.61-8v-91.59a39.5,39.5,0,0,0-5.5-19.88,45.62,45.62,0,0,0-14.73-15.62,36.32,36.32,0,0,0-38.7-.89,41.77,41.77,0,0,0-14.55,14.2q-5.68,9.06-5.68,22.19v91.59c0,2.61-1.48,5-4.44,7.28A16.8,16.8,0,0,1,1866.68,3058Z"/><path d="M2067.25,3060.84q-19.89,0-33.9-11.54t-14-35.68q0-19.51,10.65-30.35t29.29-14.91q18.64-4.08,43.13-4.08h17v-7.46a57.22,57.22,0,0,0-3.9-20.76,38.5,38.5,0,0,0-12.25-16.69q-8.34-6.55-22.9-6.57-12.42,0-19.7,2.49a56.85,56.85,0,0,0-11.54,5.15q-4.26,2.66-7.45,2.66-5.32,0-8.17-5.15a20.3,20.3,0,0,1-2.84-9.76q0-5.67,7.81-10.3a72.11,72.11,0,0,1,19.53-7.45,97.86,97.86,0,0,1,23.07-2.84q24.85,0,39.76,9.94a56.8,56.8,0,0,1,21.48,25.56,85.22,85.22,0,0,1,6.57,33.37v90.88c0,2.84-1.37,5.32-4.08,7.45a16.53,16.53,0,0,1-10.48,3.2,14.64,14.64,0,0,1-9.58-3.2q-3.91-3.2-3.91-7.45v-14.2a104.82,104.82,0,0,1-22.36,19.17Q2085.35,3060.84,2067.25,3060.84Zm9.23-23.79a39.42,39.42,0,0,0,20.06-5.68,55.91,55.91,0,0,0,16.33-14.2q6.55-8.52,6.56-16.33v-18.46H2107a214.15,214.15,0,0,0-28.22,1.78q-13.32,1.78-21.48,7.63t-8.17,18.64q0,13.84,7.81,20.23T2076.48,3037.05Z"/><path d="M2247.23,3058q-28.76,0-43.84-12.78t-15.09-40.83V2821.57q0-4.61,4.61-7.46a18.76,18.76,0,0,1,9.94-2.84,19.39,19.39,0,0,1,10.3,2.84q4.6,2.85,4.61,7.46v68.16h44.73a7.4,7.4,0,0,1,6.57,3.55,14.64,14.64,0,0,1,2.31,8.16,13.75,13.75,0,0,1-2.31,8,7.49,7.49,0,0,1-6.57,3.37h-44.73v91.59q0,15.27,6.57,21.48t22.9,6.21h11q6.39,0,9.59,3.91a13.63,13.63,0,0,1,3.19,8.87,14.34,14.34,0,0,1-3.19,9.06q-3.2,4.08-9.59,4.08Z"/><path d="M2359.05,3060.84a66.38,66.38,0,0,1-34.79-9.59,73.93,73.93,0,0,1-25.56-25.38,64.21,64.21,0,0,1-9.58-33.9v-36.21a63.33,63.33,0,0,1,9.4-33.55,73.5,73.5,0,0,1,25.39-25,67,67,0,0,1,35.14-9.58,68.35,68.35,0,0,1,34.79,9.23,73.66,73.66,0,0,1,25.74,24.67,62.82,62.82,0,0,1,9.76,34.26V2992a62.74,62.74,0,0,1-9.76,33.55,77.2,77.2,0,0,1-25.74,25.56A65.45,65.45,0,0,1,2359.05,3060.84Zm0-26.63a36.78,36.78,0,0,0,20.59-6,44.86,44.86,0,0,0,14.73-15.8,41,41,0,0,0,5.51-20.41v-36.21a39.11,39.11,0,0,0-5.51-20.06,46,46,0,0,0-14.73-15.44,36.87,36.87,0,0,0-20.59-6,36,36,0,0,0-20.41,6,46.65,46.65,0,0,0-14.56,15.44,39.1,39.1,0,0,0-5.5,20.06V2992a42.05,42.05,0,0,0,5.33,20.41,42.87,42.87,0,0,0,14.73,15.8A37,37,0,0,0,2359.05,3034.21Z"/><path d="M2555,3058a20.54,20.54,0,0,1-10.11-2.66,8.61,8.61,0,0,1-4.8-8V2808.79q0-5.67,4.8-8a23.1,23.1,0,0,1,10.11-2.31,19.85,19.85,0,0,1,9.59,2.13,23.27,23.27,0,0,1,7.1,6.22,62.26,62.26,0,0,1,6.39,10.47l88,172.88v-181.4a8.23,8.23,0,0,1,4.8-7.81,21.72,21.72,0,0,1,10.11-2.49,21.49,21.49,0,0,1,10.3,2.49,8.28,8.28,0,0,1,4.61,7.81v238.56a8.67,8.67,0,0,1-4.61,8A20.32,20.32,0,0,1,2681,3058a16.21,16.21,0,0,1-10.47-3.91,33.2,33.2,0,0,1-8-9.58l-92.65-178.57v181.41a8.67,8.67,0,0,1-4.61,8A20.32,20.32,0,0,1,2555,3058Z"/><path d="M2804.56,3060.84a66.38,66.38,0,0,1-34.79-9.59,73.93,73.93,0,0,1-25.56-25.38,64.21,64.21,0,0,1-9.58-33.9v-36.21a63.33,63.33,0,0,1,9.4-33.55,73.5,73.5,0,0,1,25.39-25,67,67,0,0,1,35.14-9.58,68.35,68.35,0,0,1,34.79,9.23,73.57,73.57,0,0,1,25.74,24.67,62.82,62.82,0,0,1,9.76,34.26V2992a62.74,62.74,0,0,1-9.76,33.55,77.1,77.1,0,0,1-25.74,25.56A65.45,65.45,0,0,1,2804.56,3060.84Zm0-26.63a36.76,36.76,0,0,0,20.59-6,45,45,0,0,0,14.73-15.8,41,41,0,0,0,5.51-20.41v-36.21a39.11,39.11,0,0,0-5.51-20.06,46.06,46.06,0,0,0-14.73-15.44,36.85,36.85,0,0,0-20.59-6,36,36,0,0,0-20.41,6,46.65,46.65,0,0,0-14.56,15.44,39.1,39.1,0,0,0-5.5,20.06V2992a42.05,42.05,0,0,0,5.33,20.41,42.87,42.87,0,0,0,14.73,15.8A37,37,0,0,0,2804.56,3034.21Z"/><path d="M2966.08,3061.2a21,21,0,0,1-8.34-1.6,9.34,9.34,0,0,1-5.15-4.8l-58.22-147.32a18.65,18.65,0,0,1-.89-2.49,11.29,11.29,0,0,1-.53-3.19,9.2,9.2,0,0,1,3-6.57,19.8,19.8,0,0,1,7.45-4.61,24.59,24.59,0,0,1,8.35-1.6,12.72,12.72,0,0,1,5.68,1.42,7.67,7.67,0,0,1,3.9,4.26l44.73,120.7,44.73-119.28a11.25,11.25,0,0,1,3.37-5.15,9.32,9.32,0,0,1,6.22-1.95,22.34,22.34,0,0,1,7.81,1.6,26.13,26.13,0,0,1,7.81,4.61c2.36,2,3.55,4.21,3.55,6.57a8.85,8.85,0,0,1-.54,3.19c-.35,1-.65,1.78-.88,2.49l-58.22,147.32a10.49,10.49,0,0,1-5.33,4.62A20.44,20.44,0,0,1,2966.08,3061.2Z"/><path d="M3101.33,3060.84q-19.89,0-33.91-11.54t-14-35.68q0-19.51,10.65-30.35t29.29-14.91q18.63-4.08,43.13-4.08h17v-7.46a57.22,57.22,0,0,0-3.9-20.76,38.5,38.5,0,0,0-12.25-16.69q-8.34-6.55-22.9-6.57-12.43,0-19.7,2.49a56.85,56.85,0,0,0-11.54,5.15q-4.26,2.66-7.45,2.66-5.33,0-8.17-5.15a20.19,20.19,0,0,1-2.84-9.76q0-5.67,7.81-10.3a72,72,0,0,1,19.53-7.45,97.79,97.79,0,0,1,23.07-2.84q24.84,0,39.76,9.94a56.8,56.8,0,0,1,21.48,25.56,85.22,85.22,0,0,1,6.57,33.37v90.88c0,2.84-1.37,5.32-4.09,7.45a16.48,16.48,0,0,1-10.47,3.2,14.64,14.64,0,0,1-9.58-3.2q-3.91-3.2-3.91-7.45v-14.2a105.07,105.07,0,0,1-22.36,19.17Q3119.43,3060.84,3101.33,3060.84Zm9.23-23.79a39.36,39.36,0,0,0,20.05-5.68,55.66,55.66,0,0,0,16.33-14.2q6.57-8.52,6.57-16.33v-18.46h-12.42a214.41,214.41,0,0,0-28.23,1.78q-13.31,1.78-21.47,7.63t-8.17,18.64q0,13.84,7.81,20.23T3110.56,3037.05Z"/><path d="M3295.86,3060.84q-23.09,0-40.82-8.7A69.85,69.85,0,0,1,3227,3028q-10.3-15.43-10.29-36v-37.28a60.71,60.71,0,0,1,9.76-33.37,74.14,74.14,0,0,1,25.74-24.49,70.16,70.16,0,0,1,93.89,22.36q9.4,14.57,9.41,33.73,0,14.2-4.61,20.41a18.82,18.82,0,0,1-11.72,7.63,75.74,75.74,0,0,1-14.91,1.42h-78.1V2993q0,19.89,14.2,31.42t36.57,11.54q13.13,0,20.94-3.55a87.65,87.65,0,0,0,12.78-6.92q5-3.37,8.88-3.38a9.65,9.65,0,0,1,6.56,2.31,15.57,15.57,0,0,1,4.09,5.5,14.4,14.4,0,0,1,1.42,5.68c0,3.08-2.26,6.57-6.75,10.48s-10.95,7.33-19.35,10.29S3307.22,3060.84,3295.86,3060.84Zm-49.7-98.34h65.68q9.59,0,12.6-2.3t3-9.06a39.2,39.2,0,0,0-5.15-19.7,40.8,40.8,0,0,0-14.38-14.73A39.21,39.21,0,0,0,3287,2911a41.34,41.34,0,0,0-35.15,19.17,35.54,35.54,0,0,0-5.68,19.52Z"/><path d="M3436.45,3060.84q-17,0-30.18-4.44t-20.59-10.47q-7.45-6-7.45-12.07a13.54,13.54,0,0,1,1.42-5.86,18.6,18.6,0,0,1,3.72-5.32,7.12,7.12,0,0,1,5.15-2.31q4.26,0,9.23,4.08a72.79,72.79,0,0,0,13.49,8.34q8.52,4.26,24.5,4.26,18.8,0,26.27-6.92t7.45-15.44q0-11-6.39-16.86a45.38,45.38,0,0,0-16.33-9.23q-9.94-3.37-20.94-6.57a133.23,133.23,0,0,1-21-8,41.68,41.68,0,0,1-16.15-13.49q-6.22-8.68-6.21-23.25a51,51,0,0,1,5.68-23.08q5.67-11.34,18.46-19t34.08-7.63a106.64,106.64,0,0,1,24,2.66q11.52,2.67,18.81,7.1t7.28,9.41a16.48,16.48,0,0,1-1.42,5.68,22,22,0,0,1-3.91,6.39,8.09,8.09,0,0,1-6.39,2.84c-1.89,0-4.56-.89-8-2.66a92.42,92.42,0,0,0-12.43-5.15,54.9,54.9,0,0,0-17.57-2.49q-11.71,0-18.81,4.09t-10.3,9.58a22,22,0,0,0-3.19,11.18q0,8.88,6.21,13.85t16.33,8q10.11,3,21.12,6a95.89,95.89,0,0,1,20.94,8.52,46.37,46.37,0,0,1,16.33,15.09q6.39,9.59,6.39,25.56,0,21.66-15.62,34.61T3436.45,3060.84Z"/></g></g></svg>